<svg id="Слой_1" data-name="Слой 1" xmlns="http://www.w3.org/2000/svg" viewBox="0 0 64 64"><defs><style>.cls-1{fill:#1277af}</style></defs><g id="_87" data-name="87"><path class="cls-1" d="M16.23 28.312a1.245 1.245 0 0 0 0 2.49h19.144a1.245 1.245 0 0 0 0-2.49zm19.144 5.886H16.23a1.244 1.244 0 0 0 0 2.486h19.144a1.244 1.244 0 0 0 0-2.486zm0 5.451H16.23a1.244 1.244 0 0 0 0 2.486h19.144a1.244 1.244 0 0 0 0-2.486zm0 5.884H16.23a1.243 1.243 0 0 0 0 2.485h19.144a1.243 1.243 0 0 0 0-2.485zm-.366 5.553H15.861a1.244 1.244 0 0 0 0 2.487h19.147a1.244 1.244 0 0 0 0-2.487z"/><path class="cls-1" d="M7.93 15.582V62h35.745V22.022l-6.641-6.44zM40.586 58.91H11.022V18.672h24.42v4.904h5.142V58.91z"/><path class="cls-1" d="M13.972 8.469v5.373h3.092v-2.284h24.422v4.904h5.142v35.334H45.27v3.091h4.449V14.908l-6.642-6.439H13.972z"/><path class="cls-1" d="M49.427 2H20.323v5.374h3.09V5.091h24.423v4.903h5.142v35.334h-1.357v3.09h4.449V8.44L49.427 2z"/></g></svg>