<svg id="Слой_1" data-name="Слой 1" xmlns="http://www.w3.org/2000/svg" viewBox="0 0 32 32"><defs><style>.cls-2{fill:#fff}</style></defs><circle cx="16" cy="16" r="16" fill="#a3a3a3"/><path class="cls-2" d="M23.732 19.127a1.704 1.704 0 0 0 .056-1.419 1.53 1.53 0 0 0-.315-.449 2.187 2.187 0 0 0-.687-.451 1.625 1.625 0 0 0-.113-1.33 1.55 1.55 0 0 0-.225-.287c-.595-.61-1.045-.453-1.045-.453a1.847 1.847 0 0 0-.461-1.66c-.704-.689-1.373-.394-1.954.196L16.06 16.2a3.729 3.729 0 0 0-1.734-.47 1.824 1.824 0 0 0-1.673 1.603c-.381 1.51-.268 3.76-.699 4.629a7.418 7.418 0 0 1-1.569 1.967L14.458 28a11.39 11.39 0 0 1 4.442-2.585 12.66 12.66 0 0 0 4.694-3.204 2.205 2.205 0 0 0 .138-3.084zM13.753 7.186l2.625-.717a4.226 4.226 0 0 0-3.083-2.463.314.314 0 0 0-.36.397z"/><path class="cls-2" d="M13.217 12.577l2.155 2.739 2.88-2.67-1.96-2.49a4.559 4.559 0 0 0 .463-2.176.314.314 0 0 0-.4-.291L11.017 9.2 9.472 5.12a.314.314 0 0 0-.52-.106 4.536 4.536 0 0 0 4.265 7.564z"/></svg>