<svg id="Слой_1" data-name="Слой 1" xmlns="http://www.w3.org/2000/svg" viewBox="0 0 64 64">
  <defs>
    <style>
      .cls-1 {
        fill: #1277af;
      }
    </style>
  </defs>
  <title>i</title>
  <g id="_87" data-name="87">
    <g>
      <path class="cls-1" d="M16.22992,28.31223a1.24538,1.24538,0,0,0,0,2.48923H35.37376a1.2453,1.2453,0,0,0,0-2.48922Z"/>
      <path class="cls-1" d="M35.37376,34.19765H16.22992a1.24392,1.24392,0,0,0,0,2.48642H35.37376A1.24385,1.24385,0,0,0,35.37376,34.19765Z"/>
      <path class="cls-1" d="M35.37376,39.64889H16.22992a1.2438,1.2438,0,0,0,0,2.48618H35.37376A1.24373,1.24373,0,0,0,35.37376,39.64889Z"/>
      <path class="cls-1" d="M35.37376,45.53315H16.22992a1.24332,1.24332,0,0,0,0,2.48525H35.37376A1.24324,1.24324,0,0,0,35.37376,45.53315Z"/>
      <path class="cls-1" d="M35.00807,51.08632H15.86072a1.24383,1.24383,0,0,0,0,2.48618H35.00807A1.24385,1.24385,0,0,0,35.00807,51.08632Z"/>
      <path class="cls-1" d="M7.93009,15.58178V62H43.67546V22.02182l-6.64183-6.44ZM40.586,58.90963H11.02186V18.67238H35.4425v4.90316h5.14119V58.90963Z"/>
      <polygon class="cls-1" points="13.972 8.469 13.972 13.842 17.064 13.842 17.064 11.558 41.486 11.558 41.486 16.462 46.628 16.462 46.628 51.796 45.27 51.796 45.27 54.887 49.719 54.887 49.719 14.908 43.077 8.469 13.972 8.469"/>
      <polygon class="cls-1" points="49.427 2 20.323 2 20.323 7.374 23.413 7.374 23.413 5.091 47.836 5.091 47.836 9.994 52.978 9.994 52.978 45.328 51.621 45.328 51.621 48.418 56.07 48.418 56.07 8.44 49.427 2"/>
    </g>
  </g>
</svg>
