<svg id="Слой_1" data-name="Слой 1" xmlns="http://www.w3.org/2000/svg" viewBox="0 0 32 32">
  <defs>
    <style>
      .cls-1 {
        fill: #a3a3a3;
      }

      .cls-2 {
        fill: #fff;
      }
    </style>
  </defs>
  <title>i</title>
  <circle class="cls-1" cx="16" cy="16" r="16"/>
  <g>
    <path class="cls-2" d="M23.73224,19.12658a1.70411,1.70411,0,0,0,.05589-1.4184,1.5295,1.5295,0,0,0-.31532-.449,2.18668,2.18668,0,0,0-.68709-.45115,1.62464,1.62464,0,0,0-.11247-1.32991,1.54972,1.54972,0,0,0-.22533-.2875c-.59528-.6091-1.0453-.45279-1.0453-.45279a1.84683,1.84683,0,0,0-.4607-1.6598c-.70392-.68854-1.37324-.39432-1.954.19587l-2.927,2.92578a3.729,3.729,0,0,0-1.73422-.46955,1.82411,1.82411,0,0,0-1.67292,1.60309c-.38094,1.50914-.26765,3.75926-.69877,4.62866a7.418,7.418,0,0,1-1.56855,1.96676L14.45772,28a11.38926,11.38926,0,0,1,4.44246-2.58484,12.65931,12.65931,0,0,0,4.69391-3.20423A2.205,2.205,0,0,0,23.73224,19.12658Z"/>
    <path class="cls-2" d="M13.7531,7.18564l2.62484-.71686a4.22622,4.22622,0,0,0-3.08315-2.4632.3141.3141,0,0,0-.36016.39708Z"/>
    <path class="cls-2" d="M13.21654,12.57675l2.15554,2.73876L18.25177,12.646l-1.95992-2.4902a4.55873,4.55873,0,0,0,.463-2.17608.31416.31416,0,0,0-.39953-.29083L11.0166,9.20126l-1.54475-4.082a.314.314,0,0,0-.52042-.10613,4.53577,4.53577,0,0,0,4.26511,7.56361Z"/>
  </g>
</svg>
